<?xml version="1.0" encoding="UTF-8"?>
<!DOCTYPE svg PUBLIC "-//W3C//DTD SVG 1.1//EN" "http://www.w3.org/Graphics/SVG/1.1/DTD/svg11.dtd">
<!-- Creator: CorelDRAW -->
<svg xmlns="http://www.w3.org/2000/svg" xml:space="preserve" width="6.82666in" height="6.82666in" style="shape-rendering:geometricPrecision; text-rendering:geometricPrecision; image-rendering:optimizeQuality; fill-rule:evenodd; clip-rule:evenodd"
viewBox="0 0 6.82666 6.82666"
 xmlns:xlink="http://www.w3.org/1999/xlink">
 <defs>
  <style type="text/css">
   <![CDATA[
    .fil1 {fill:none}
    .fil0 {fill:#7E57C2;fill-rule:nonzero}
    .fil2 {fill:#9575CD;fill-rule:nonzero}
   ]]>
  </style>
 </defs>
 <g id="Layer_x0020_1">
  <metadata id="CorelCorpID_0Corel-Layer"/>
  <polygon class="fil0" points="5.52311,4.94929 5.52311,1.30822 2.64613,1.88362 2.64613,5.26896 2.32646,5.26896 2.32646,1.75263 2.32646,1.62165 2.45507,1.59593 5.65173,0.956587 5.84279,0.918378 5.84279,1.1133 5.84279,4.94929 "/>
  <g id="_490150776">
   <rect id="_490150920" class="fil1" width="6.82666" height="6.82666"/>
   <rect id="_490150320" class="fil1" x="0.853331" y="0.853331" width="5.12" height="5.12"/>
  </g>
  <path class="fil2" d="M1.815 4.62962c0.218996,0 0.419673,0.065126 0.567075,0.170413 0.163146,0.116528 0.264055,0.282051 0.264055,0.468921 0,0.186874 -0.100921,0.352386 -0.264055,0.468913 -0.147402,0.105287 -0.348087,0.170413 -0.567075,0.170413 -0.218988,0 -0.419673,-0.065126 -0.567075,-0.170413 -0.163134,-0.116528 -0.264055,-0.282039 -0.264055,-0.468913 0,-0.18687 0.100909,-0.352394 0.264055,-0.468921 0.147402,-0.105287 0.348079,-0.170413 0.567075,-0.170413z"/>
  <path class="fil2" d="M5.01166 4.30995c0.218996,0 0.419673,0.0651299 0.567075,0.170413 0.163146,0.116531 0.264055,0.282055 0.264055,0.468921 0,0.186874 -0.100921,0.352386 -0.264055,0.468917 -0.147402,0.105283 -0.348087,0.170413 -0.567075,0.170413 -0.218988,0 -0.419673,-0.0651299 -0.567075,-0.170413 -0.163134,-0.116531 -0.264055,-0.282043 -0.264055,-0.468917 0,-0.186866 0.100909,-0.35239 0.264055,-0.468921 0.147402,-0.105283 0.348079,-0.170413 0.567075,-0.170413z"/>
 </g>
</svg>
